<?xml version="1.0" encoding="utf-8"?>
<!-- Generator: Adobe Illustrator 19.0.0, SVG Export Plug-In . SVG Version: 6.00 Build 0)  -->
<svg version="1.1" id="Layer_1" focusable="false" xmlns="http://www.w3.org/2000/svg" xmlns:xlink="http://www.w3.org/1999/xlink"
	 x="0px" y="0px" viewBox="5 -37 448 512" style="enable-background:new 5 -37 448 512;" xml:space="preserve">
<style type="text/css">
	.st0{opacity:0.56;fill:#D2D7DB;}
</style>
<path class="st0" d="M444,119.4L444,119.4c0-8.1-1.7-15.3-5.3-21.5c-3.5-6.1-8.6-11.1-15.6-15.2c-57.3-33-114.6-65.9-171.8-99
	c-15.4-8.9-30.4-8.6-45.7,0.5C182.9-2.3,68.8,63.1,34.8,82.8c-14,8.1-20.8,20.5-20.8,36.6c0,66.4,0,132.8,0,199.2
	c0,7.9,1.7,15,5,21.1c3.5,6.2,8.7,11.5,15.8,15.6c34,19.7,148.1,85.1,170.9,98.5c15.3,9,30.3,9.4,45.7,0.5
	c57.2-33,114.6-66,171.8-99c7.1-4.1,12.3-9.3,15.8-15.6c3.4-6.1,5-13.1,5-21.1C444,318.6,444,185.8,444,119.4z M229,361.8
	c-53,0-99.3-28.9-123.9-71.7c-12-20.9-18.9-45.2-18.9-71.1c0-78.9,63.9-142.8,142.8-142.8c52.8,0,99,28.7,123.7,71.3l-62.2,35.8
	c-12.3-21.2-35.2-35.4-61.5-35.4c-39.3,0-71.1,31.8-71.1,71.1c0,12.4,3.2,24.5,9.4,35.3c12.3,21.4,35.3,35.8,61.7,35.8
	c26.6,0,49.8-14.6,62-36.2l62.1,36C328.4,332.8,282.1,361.8,229,361.8z M372.8,227h-16.4v16.4h-16.4V227h-16.4v-16.4h16.4v-16.4
	h16.4v16.4h16.4V227z M432.5,227h-16.4v16.4h-16.4V227h-16.4v-16.4h16.4v-16.4h16.4v16.4h16.4V227z"/>
</svg>
