<?xml version="1.0" encoding="utf-8"?>
<!-- Generator: Adobe Illustrator 19.0.0, SVG Export Plug-In . SVG Version: 6.00 Build 0)  -->
<svg version="1.1" id="Layer_1" xmlns="http://www.w3.org/2000/svg" xmlns:xlink="http://www.w3.org/1999/xlink" x="0px" y="0px"
	 viewBox="0 0 448 210" style="enable-background:new 0 0 448 210;" xml:space="preserve">
<style type="text/css">
	.st0{opacity:0.56;}
	.st1{fill:#D2D7DB;}
</style>
<g id="XMLID_2_" class="st0">
	<path id="XMLID_13_" class="st1" d="M53.9,27.3h24.3v112.7c-12.5,2.3-21.6,3.3-31.6,3.3c-29.7,0-45.2-13.5-45.2-39.2
		c0-24.8,16.4-40.9,41.9-40.9c4,0,6.9,0.3,10.6,1.3V27.3z M53.9,83.9c-2.9-1-5.2-1.3-8.2-1.3c-12.3,0-19.5,7.6-19.5,20.8
		c0,12.9,6.8,20.1,19.3,20.1c2.7,0,4.9-0.2,8.4-0.6L53.9,83.9L53.9,83.9z"/>
	<path id="XMLID_3_" class="st1" d="M117,64.8v56.4c0,19.5-1.4,28.8-5.7,36.8c-4,7.7-9.2,12.7-19.9,18l-22.6-10.8
		c10.8-5,16-9.5,19.3-16.3c3.5-6.9,4.6-15,4.6-36.2v-48L117,64.8L117,64.8z M92.6,27.4H117v25H92.6V27.4z M131.7,70.4
		c10.8-5,21-7.3,32.2-7.3c12.5,0,20.7,3.3,24.3,9.8c2.1,3.7,2.7,8.4,2.7,18.5v49.5c-10.9,1.6-24.7,2.7-34.7,2.7
		c-20.4,0-29.5-7.1-29.5-22.9c0-17.1,12.2-25,42.1-27.5v-5.4c0-4.4-2.2-6-8.4-6c-9,0-19.1,2.5-28.6,7.4L131.7,70.4L131.7,70.4z
		 M169.8,109.1c-16.1,1.6-21.4,4.1-21.4,10.4c0,4.8,3,6.9,9.6,6.9c3.7,0,6.9-0.3,11.7-1.1L169.8,109.1z M202.8,68.6
		c14.4-3.8,26.2-5.6,38.2-5.6c12.5,0,21.5,2.9,26.8,8.4c5,5.2,6.6,10.9,6.6,23.1v47.7h-24.3V95.5c0-9.3-3.1-12.8-11.9-12.8
		c-3.3,0-6.3,0.3-11.2,1.7v57.9h-24.3V68.6z M284.1,155.6c8.5,4.4,17.1,6.5,26.1,6.5c16,0,22.8-6.5,22.8-22v-0.5
		c-4.8,2.3-9.5,3.3-15.8,3.3c-21.4,0-34.9-14.1-34.9-36.4c0-27.7,20.1-43.3,55.6-43.3c10.4,0,20.1,1.1,31.8,3.5l-8.4,17.6
		c-6.5-1.3-0.5-0.2-5.4-0.6v2.5l0.3,10.2l0.2,13.3c0.2,3.3,0.2,6.6,0.3,10v6.6c0,20.8-1.7,30.7-6.9,38.8
		c-7.6,11.9-20.7,17.7-39.4,17.7c-9.5,0-17.7-1.4-26.2-4.8L284.1,155.6L284.1,155.6z M332.5,82.8h-2.5c-4.8-0.2-10.2,1.1-14.1,3.5
		c-5.8,3.3-8.9,9.3-8.9,17.9c0,12.2,6,19.1,16.8,19.1c3.3,0,6-0.6,9.2-1.6v-8.4c0-2.9-0.2-6-0.2-9.3l-0.2-11.2l-0.2-8.1L332.5,82.8
		L332.5,82.8z M407.4,62.8c24.3,0,39.2,15.3,39.2,40.1c0,25.5-15.5,41.4-40.1,41.4c-24.3,0-39.4-15.3-39.4-40
		C367.1,78.7,382.5,62.8,407.4,62.8L407.4,62.8z M406.9,124.8c9.3,0,14.9-7.7,14.9-21.2c0-13.3-5.4-21.2-14.7-21.2
		c-9.6,0-15.2,7.7-15.2,21.2S397.4,124.8,406.9,124.8L406.9,124.8z"/>
</g>
</svg>
